# xmcd
#
# Track frame offsets:
#	150
#	13939
#	26774
#	37693
#	48618
#	63155
#	72309
#	89916
#	101651
#	115358
#	121752
#	130837
#	138886
#	154116
#	166470
#	180312
#	188834
#	197644
#	214823
#
# Disc length: 3025 seconds
#
# Revision: 1
# Processed by: cddbd v1.5.1PL0 Copyright (c) Steve Scherf et al.
# Submitted via: audiograbber 1.80
#
DISCID=0c0bcf13
DTITLE=Tennessee Ernie Ford - Tennessee Ernie Ford
DYEAR=1900
DGENRE=
TTITLE0=Love To Tell The Story
TTITLE1=In The Garden
TTITLE2=Bless It Be The Ties
TTITLE3=Farther Along
TTITLE4=Take My Hand
TTITLE5=Let The Lower Lights Burn
TTITLE6=What A Friend We Have
TTITLE7=Fairest Lord
TTITLE8=A Mighty Fortress
TTITLE9=Battle Of Jericho
TTITLE10=Old Time Relic
TTITLE11=Roll Jordan Roll
TTITLE12=Steal Away
TTITLE13=War No More
TTITLE14=Go Down Moses
TTITLE15=Swing Low
TTITLE16=Standing In The Need
TTITLE17=Golden Bells
TTITLE18=Get On Board Little Children
EXTD=
EXTT0=
EXTT1=
EXTT2=
EXTT3=
EXTT4=
EXTT5=
EXTT6=
EXTT7=
EXTT8=
EXTT9=
EXTT10=
EXTT11=
EXTT12=
EXTT13=
EXTT14=
EXTT15=
EXTT16=
EXTT17=
EXTT18=
PLAYORDER=
